# xmcd CD database file
#
# Track frame offsets:
#	150
#	14058
#	26794
#	40665
#	52317
#	67014
#	76376
#	89395
#	101390
#	115409
#	127804
#	143971
#	156312
#	173215
#	186446
#	199119
#	214193
#	229125
#	244089
#	259688
#	272340
#	284526
#	303796
#	318331
#	336440
#
# Disc length: 4709 seconds
#
# Revision: 0
# Processed by: cddbd v1.5.2PL0 Copyright (c) Steve Scherf et al.
# Submitted via: CDex 1.51
#
DISCID=75126319
DTITLE=Harry Belafonteartist - Calypso and Sings of the Caribbean
DYEAR=2014
DGENRE=Jazz
TTITLE0=Day O (Banana Boat Song)
TTITLE1=Do Adore Her
TTITLE2=Jamaica Farewell
TTITLE3=Will His Love Be Like His Rum?
TTITLE4=Dolly Dawn
TTITLE5=Star O
TTITLE6=The Jack-Ass Song
TTITLE7=Hosanna
TTITLE8=Come Back Liza
TTITLE9=Brown Skin Girl
TTITLE10=Man Smart (Woman Smarter)
TTITLE11=Scratch, Scratch
TTITLE12=Lucy's Door
TTITLE13=Cordelia Brown
TTITLE14=Don't Ever Love Me
TTITLE15=Love, Love Alone
TTITLE16=Coconut Woman
TTITLE17=Haiti Cherie
TTITLE18=Judy Drowned
TTITLE19=Island in the Sun
TTITLE20=Angelique-O
TTITLE21=Lead Man Holler
TTITLE22=Matilda
TTITLE23=Monkey
TTITLE24=Jump in the Line
EXTD=YEAR: 2014
EXTT0=
EXTT1=
EXTT2=
EXTT3=
EXTT4=
EXTT5=
EXTT6=
EXTT7=
EXTT8=
EXTT9=
EXTT10=
EXTT11=
EXTT12=
EXTT13=
EXTT14=
EXTT15=
EXTT16=
EXTT17=
EXTT18=
EXTT19=
EXTT20=
EXTT21=
EXTT22=
EXTT23=
EXTT24=
PLAYORDER=
